<svg class="diagram-root" style="background: #f5f6f6" xmlns="http://www.w3.org/2000/svg" xmlns:xlink="http://www.w3.org/1999/xlink"><style>.diagram-root { font-family: "Helvetica Neue", sans-serif; font-size: 12px; } .t { overflow: visible; } .t-bg { y: 40; fill: #fff;   } .th { fill: #005aa0;   } .tht { fill: #fff; font-size: 14px;  } .tf { fill: #323c46; overflow: visible; } .tf.pk { fill: #005aa0; font-weight: bold; } .tf.fk { font-weight: bold; } .ty { fill: #adb1b5; font-weight: normal; text-anchor: end; } .r { fill: transparent; stroke: #c3c3c3; stroke-width: 1; } .l { stroke: 1; } .i { fill: #c2c7ce; stroke: #c2c7ce; } .i.ix { fill: #afb3b6; stroke: #000; } .fa { fill: transparent; overflow: visible; } .fa .bg.hover { fill: #f7f7f7; } .c { cy: 12; r: 4; stroke: #d2d2dc; fill: #d2d2dc; } .hr { fill: transparent; stroke: #323c46; stroke-opacity: 0.035; stroke-width: 13; } .dc { stroke: #fa5a3c; fill: #fa5a3c; } .x { stroke: white; stroke-width: 1; } .hl .th { fill: #1b9bff; } .hl .tht {  } .fhl .bg { fill: #e7f4ff; } .fhls .bg {  } .r.hl { stroke: #1b9bff; } .dim { opacity: 0.25; }</style><g class="drawing-wrapper" transform="translate(118.83525252525193, 579.2685714285708) scale(1,1)"><g class="rs"><path d="M 185.11 -335.23 m -1, 0 a 1,1 0 1,0 2,0 a 1,1 0 1,0 -2,0 M 185.11 -335.23 m -0.5, 0 a 0.5,0.5 0 1,0 1,0 a 0.5,0.5 0 1,0 -1,0  M185.11 -335.23 L185.11 -335.23 173.11 -335.23 M 185.11 -329.23 m -1, 0 a 1,1 0 1,0 2,0 a 1,1 0 1,0 -2,0 M 185.11 -329.23 m -0.5, 0 a 0.5,0.5 0 1,0 1,0 a 0.5,0.5 0 1,0 -1,0  M185.11 -329.23 L185.11 -329.23 178.11 -335.23 185.11 -341.23 M 185.11 -341.23 m -1, 0 a 1,1 0 1,0 2,0 a 1,1 0 1,0 -2,0 M 185.11 -341.23 m -0.5, 0 a 0.5,0.5 0 1,0 1,0 a 0.5,0.5 0 1,0 -1,0  M173.11 -335.23 Q 151.91 -335.23, 130.71 -332.44 T 88.3 -329.65 M 76.3 -329.65 m -1, 0 a 1,1 0 1,0 2,0 a 1,1 0 1,0 -2,0 M 76.3 -329.65 m -0.5, 0 a 0.5,0.5 0 1,0 1,0 a 0.5,0.5 0 1,0 -1,0  M76.3 -329.65 L76.3 -329.65 88.3 -329.65 M82.3 -323.65 L82.3 -323.65 82.3 -335.65" id="h1537058300" class="r"></path><path d="M 634.19 -321.72 m -1, 0 a 1,1 0 1,0 2,0 a 1,1 0 1,0 -2,0 M 634.19 -321.72 m -0.5, 0 a 0.5,0.5 0 1,0 1,0 a 0.5,0.5 0 1,0 -1,0  M634.19 -321.72 L634.19 -321.72 646.19 -321.72 M 634.19 -315.72 m -1, 0 a 1,1 0 1,0 2,0 a 1,1 0 1,0 -2,0 M 634.19 -315.72 m -0.5, 0 a 0.5,0.5 0 1,0 1,0 a 0.5,0.5 0 1,0 -1,0  M634.19 -315.72 L634.19 -315.72 641.19 -321.72 634.19 -327.72 M 634.19 -327.72 m -1, 0 a 1,1 0 1,0 2,0 a 1,1 0 1,0 -2,0 M 634.19 -327.72 m -0.5, 0 a 0.5,0.5 0 1,0 1,0 a 0.5,0.5 0 1,0 -1,0  M646.19 -321.72 Q 670.54 -321.72, 694.88 -285.39 T 743.56 -249.06 M 755.56 -249.06 m -1, 0 a 1,1 0 1,0 2,0 a 1,1 0 1,0 -2,0 M 755.56 -249.06 m -0.5, 0 a 0.5,0.5 0 1,0 1,0 a 0.5,0.5 0 1,0 -1,0  M755.56 -249.06 L755.56 -249.06 743.56 -249.06 M749.56 -243.06 L749.56 -243.06 749.56 -255.06" id="h1397587031" class="r"></path><path d="M 472.36 -296.72 m -1, 0 a 1,1 0 1,0 2,0 a 1,1 0 1,0 -2,0 M 472.36 -296.72 m -0.5, 0 a 0.5,0.5 0 1,0 1,0 a 0.5,0.5 0 1,0 -1,0  M472.36 -296.72 L472.36 -296.72 460.36 -296.72 M466.36 -290.72 L466.36 -290.72 466.36 -302.72 M460.36 -296.72 Q 440.34 -296.72, 420.32 -328.47 T 380.27 -360.23 M 368.27 -360.23 m -1, 0 a 1,1 0 1,0 2,0 a 1,1 0 1,0 -2,0 M 368.27 -360.23 m -0.5, 0 a 0.5,0.5 0 1,0 1,0 a 0.5,0.5 0 1,0 -1,0  M368.27 -360.23 L368.27 -360.23 380.27 -360.23 M374.27 -354.23 L374.27 -354.23 374.27 -366.23" id="h2286254435" class="r"></path><path d="M 473.41 -140.67 m -1, 0 a 1,1 0 1,0 2,0 a 1,1 0 1,0 -2,0 M 473.41 -140.67 m -0.5, 0 a 0.5,0.5 0 1,0 1,0 a 0.5,0.5 0 1,0 -1,0  M473.41 -140.67 L473.41 -140.67 461.41 -140.67 M 473.41 -134.67 m -1, 0 a 1,1 0 1,0 2,0 a 1,1 0 1,0 -2,0 M 473.41 -134.67 m -0.5, 0 a 0.5,0.5 0 1,0 1,0 a 0.5,0.5 0 1,0 -1,0  M473.41 -134.67 L473.41 -134.67 466.41 -140.67 473.41 -146.67 M 473.41 -146.67 m -1, 0 a 1,1 0 1,0 2,0 a 1,1 0 1,0 -2,0 M 473.41 -146.67 m -0.5, 0 a 0.5,0.5 0 1,0 1,0 a 0.5,0.5 0 1,0 -1,0  M461.41 -140.67 Q 441.13 -140.67, 420.84 -250.45 T 380.27 -360.23 M 368.27 -360.23 m -1, 0 a 1,1 0 1,0 2,0 a 1,1 0 1,0 -2,0 M 368.27 -360.23 m -0.5, 0 a 0.5,0.5 0 1,0 1,0 a 0.5,0.5 0 1,0 -1,0  M368.27 -360.23 L368.27 -360.23 380.27 -360.23 M374.27 -354.23 L374.27 -354.23 374.27 -366.23" id="h1139284389" class="r"></path><path d="M 655.24 -115.66999999999999 m -1, 0 a 1,1 0 1,0 2,0 a 1,1 0 1,0 -2,0 M 655.24 -115.66999999999999 m -0.5, 0 a 0.5,0.5 0 1,0 1,0 a 0.5,0.5 0 1,0 -1,0  M655.24 -115.66999999999999 L655.24 -115.66999999999999 667.24 -115.66999999999999 M 655.24 -109.66999999999999 m -1, 0 a 1,1 0 1,0 2,0 a 1,1 0 1,0 -2,0 M 655.24 -109.66999999999999 m -0.5, 0 a 0.5,0.5 0 1,0 1,0 a 0.5,0.5 0 1,0 -1,0  M655.24 -109.66999999999999 L655.24 -109.66999999999999 662.24 -115.66999999999999 655.24 -121.66999999999999 M 655.24 -121.66999999999999 m -1, 0 a 1,1 0 1,0 2,0 a 1,1 0 1,0 -2,0 M 655.24 -121.66999999999999 m -0.5, 0 a 0.5,0.5 0 1,0 1,0 a 0.5,0.5 0 1,0 -1,0  M667.24 -115.66999999999999 Q 686.32 -115.66999999999999, 705.4 -182.36 T 743.56 -249.06 M 755.56 -249.06 m -1, 0 a 1,1 0 1,0 2,0 a 1,1 0 1,0 -2,0 M 755.56 -249.06 m -0.5, 0 a 0.5,0.5 0 1,0 1,0 a 0.5,0.5 0 1,0 -1,0  M755.56 -249.06 L755.56 -249.06 743.56 -249.06 M749.56 -243.06 L749.56 -243.06 749.56 -255.06" id="h1607168654" class="r"></path><path d="M 478.76 -492.27 m -1, 0 a 1,1 0 1,0 2,0 a 1,1 0 1,0 -2,0 M 478.76 -492.27 m -0.5, 0 a 0.5,0.5 0 1,0 1,0 a 0.5,0.5 0 1,0 -1,0  M478.76 -492.27 L478.76 -492.27 466.76 -492.27 M472.76 -486.27 L472.76 -486.27 472.76 -498.27 M466.76 -492.27 Q 445.14 -492.27, 423.52 -426.25 T 380.27 -360.23 M 368.27 -360.23 m -1, 0 a 1,1 0 1,0 2,0 a 1,1 0 1,0 -2,0 M 368.27 -360.23 m -0.5, 0 a 0.5,0.5 0 1,0 1,0 a 0.5,0.5 0 1,0 -1,0  M368.27 -360.23 L368.27 -360.23 380.27 -360.23 M374.27 -354.23 L374.27 -354.23 374.27 -366.23" id="h3177548053" class="r"></path></g><g class="hrs"></g><g class="ts"><svg width="183.16" height="225" x="185.11" y="-417.23" id="h1639608377" class="t"><rect height="40" width="183.16" class="th"></rect><text x="13" y="25" class="tht">employees</text><rect height="185" width="183.16" class="t-bg" y="40"></rect><text x="13" y="61" class="tf pk">emp_no<tspan x="170.16" class="ty">INT</tspan></text><path d="M7,14A2,2 0 0,1 5,12A2,2 0 0,1 7,10A2,2 0 0,1 9,12A2,2 0 0,1 7,14M12.65,10C11.83,7.67 9.61,6 7, 6A6, 6 0 0, 0 1, 12A6, 6 0 0, 0 7, 18C9.61, 18 11.83, 16.33 12.65, 14H17V18H21V14H23V10H12.65Z" class="i pk" transform="translate(130.829921875, 48) scale(0.65)"></path><text x="13" y="86" class="tf fk">emp_title_id<tspan x="170.16" class="ty">VARCHAR(5)</tspan></text><text x="13" y="111" class="tf">birth_date<tspan x="170.16" class="ty">DATE</tspan></text><text x="13" y="136" class="tf">first_name<tspan x="170.16" class="ty">VARCHAR(25)</tspan></text><text x="13" y="161" class="tf">last_name<tspan x="170.16" class="ty">VARCHAR(25)</tspan></text><text x="13" y="186" class="tf">sex<tspan x="170.16" class="ty">CHAR</tspan></text><text x="13" y="211" class="tf">hire_date<tspan x="170.16" class="ty">DATE</tspan></text></svg><svg width="185.18" height="100" x="755.56" y="-306.06" id="h475896179" class="t"><rect height="40" width="185.18" class="th"></rect><text x="13" y="25" class="tht">departments</text><rect height="60" width="185.18" class="t-bg" y="40"></rect><text x="13" y="61" class="tf pk">dept_no<tspan x="172.18" class="ty">VARCHAR(4)</tspan></text><path d="M7,14A2,2 0 0,1 5,12A2,2 0 0,1 7,10A2,2 0 0,1 9,12A2,2 0 0,1 7,14M12.65,10C11.83,7.67 9.61,6 7, 6A6, 6 0 0, 0 1, 12A6, 6 0 0, 0 7, 18C9.61, 18 11.83, 16.33 12.65, 14H17V18H21V14H23V10H12.65Z" class="i pk" transform="translate(79.72296875, 48) scale(0.65)"></path><text x="13" y="86" class="tf">dept_name<tspan x="172.18" class="ty">VARCHAR(25)</tspan></text></svg><svg width="161.83" height="100" x="472.36" y="-378.72" id="h1676682957" class="t"><rect height="40" width="161.83" class="th"></rect><text x="13" y="25" class="tht">dept_manager</text><rect height="60" width="161.83" class="t-bg" y="40"></rect><text x="13" y="61" class="tf fk">dept_no<tspan x="148.83" class="ty">VARCHAR(4)</tspan></text><text x="13" y="86" class="tf pk">emp_no<tspan x="148.83" class="ty">INT</tspan></text><path d="M7,14A2,2 0 0,1 5,12A2,2 0 0,1 7,10A2,2 0 0,1 9,12A2,2 0 0,1 7,14M12.65,10C11.83,7.67 9.61,6 7, 6A6, 6 0 0, 0 1, 12A6, 6 0 0, 0 7, 18C9.61, 18 11.83, 16.33 12.65, 14H17V18H21V14H23V10H12.65Z" class="i pk" transform="translate(109.49992187500001, 73) scale(0.65)"></path></svg><svg width="181.83" height="100" x="473.41" y="-197.67" id="h1090417462" class="t"><rect height="40" width="181.83" class="th"></rect><text x="13" y="25" class="tht">dept_emp</text><rect height="60" width="181.83" class="t-bg" y="40"></rect><text x="13" y="61" class="tf pk">emp_no<tspan x="168.83" class="ty">INT</tspan></text><path d="M7,14A2,2 0 0,1 5,12A2,2 0 0,1 7,10A2,2 0 0,1 9,12A2,2 0 0,1 7,14M12.65,10C11.83,7.67 9.61,6 7, 6A6, 6 0 0, 0 1, 12A6, 6 0 0, 0 7, 18C9.61, 18 11.83, 16.33 12.65, 14H17V18H21V14H23V10H12.65Z" class="i pk" transform="translate(129.499921875, 48) scale(0.65)"></path><text x="13" y="86" class="tf pk">dept_no<tspan x="168.83" class="ty">VARCHAR(4)</tspan></text><path d="M7,14A2,2 0 0,1 5,12A2,2 0 0,1 7,10A2,2 0 0,1 9,12A2,2 0 0,1 7,14M12.65,10C11.83,7.67 9.61,6 7, 6A6, 6 0 0, 0 1, 12A6, 6 0 0, 0 7, 18C9.61, 18 11.83, 16.33 12.65, 14H17V18H21V14H23V10H12.65Z" class="i pk" transform="translate(76.37296875000001, 73) scale(0.65)"></path></svg><svg width="128.7" height="100" x="478.76" y="-549.27" id="h2472833127" class="t"><rect height="40" width="128.7" class="th"></rect><text x="13" y="25" class="tht">salaries</text><rect height="60" width="128.7" class="t-bg" y="40"></rect><text x="13" y="61" class="tf pk">emp_no<tspan x="115.69999999999999" class="ty">INT</tspan></text><path d="M7,14A2,2 0 0,1 5,12A2,2 0 0,1 7,10A2,2 0 0,1 9,12A2,2 0 0,1 7,14M12.65,10C11.83,7.67 9.61,6 7, 6A6, 6 0 0, 0 1, 12A6, 6 0 0, 0 7, 18C9.61, 18 11.83, 16.33 12.65, 14H17V18H21V14H23V10H12.65Z" class="i pk" transform="translate(76.36992187499999, 48) scale(0.65)"></path><text x="13" y="86" class="tf">salary<tspan x="115.69999999999999" class="ty">INT</tspan></text></svg><svg width="173.14" height="100" x="-96.84" y="-386.65" id="h311790747" class="t"><rect height="40" width="173.14" class="th"></rect><text x="13" y="25" class="tht">titles</text><rect height="60" width="173.14" class="t-bg" y="40"></rect><text x="13" y="61" class="tf pk">title_id<tspan x="160.14" class="ty">VARCHAR(5)</tspan></text><path d="M7,14A2,2 0 0,1 5,12A2,2 0 0,1 7,10A2,2 0 0,1 9,12A2,2 0 0,1 7,14M12.65,10C11.83,7.67 9.61,6 7, 6A6, 6 0 0, 0 1, 12A6, 6 0 0, 0 7, 18C9.61, 18 11.83, 16.33 12.65, 14H17V18H21V14H23V10H12.65Z" class="i pk" transform="translate(67.68296874999999, 48) scale(0.65)"></path><text x="13" y="86" class="tf">title<tspan x="160.14" class="ty">VARCHAR(25)</tspan></text></svg></g></g><text class="qdbd-link" x="10" y="20">www.quickdatabasediagrams.com</text></svg>